# xmcd
#
# Track frame offsets:
#	225
#	13855
#	24602
#	38255
#	49240
#	64362
#	81035
#	90925
#	105087
#	118105
#	132400
#	145330
#	160305
#	172527
#	191197
#	215587
#	229267
#	242032
#
# Disc length: 3558 seconds
#
# Revision: 0
# Processed by: cddbd v1.4PL0 Copyright (c) Steve Scherf et al.
# Submitted via: dBpowerAMP V4.0
#
DISCID=ed0de312
DTITLE=Diversen - Een heel gelukkig kerstfeest met CD 2
DYEAR=1994
DGENRE=Blues
TTITLE0=Willeke Alberti - I'll be home for christmas
TTITLE1=Gerard Joling featuring the jordaniars - A prayer
TTITLE2=De wico's - Muss i denn
TTITLE3=Marty - Hoe leit dit kindeke
TTITLE4=Corrie Konings - Laat één kaarsje aan
TTITLE5=Marietje en het Volendams operakoor - Stille nacht, heilige nacht
TTITLE6=Blue Diamonds - Let it snow! Let it snow! Let it snow!
TTITLE7=André Hazes - Met kerst ben ik thuis
TTITLE8=Tonny Eyk - Have yourself a merry little christmas
TTITLE9=Willy and Willeke Alberty - Er is een kindeke geboren op d'aard
TTITLE10=Trea Dobbs - Het kerkje in de kerstnacht
TTITLE11=De havenzangers - O denneboom - Aber Heidschi Bumbeidschi
TTITLE12=Ronnie Tober - Ere zij God
TTITLE13=Anneke Grönloh - Gloria in excelsis deo
TTITLE14=BZN - Once upon a christmas
TTITLE15=Piet Souer met orkest o.l.v. Harry van Hoof - Greensleeves
TTITLE16=Rob de Nijs - Spekvet
TTITLE17=Bonnie, Ronnie, Ciska, Nico, Willeke, Harmen, Ome Jan - Een heel gelukkig kerstfeest
EXTD=
EXTT0=
EXTT1=
EXTT2=
EXTT3=
EXTT4=
EXTT5=
EXTT6=
EXTT7=
EXTT8=
EXTT9=
EXTT10=
EXTT11=
EXTT12=
EXTT13=
EXTT14=
EXTT15=
EXTT16=
EXTT17=
PLAYORDER=
